<?xml version="1.0" standalone="no"?>
<!DOCTYPE svg PUBLIC "-//W3C//DTD SVG 20010904//EN"
 "http://www.w3.org/TR/2001/REC-SVG-20010904/DTD/svg10.dtd">
<svg version="1.0" xmlns="http://www.w3.org/2000/svg"
 width="700.000000pt" height="700.000000pt" viewBox="0 0 700.000000 700.000000"
 preserveAspectRatio="xMidYMid meet">
<metadata>
Created by potrace 1.11, written by Peter Selinger 2001-2013
</metadata>
<g transform="translate(0.000000,700.000000) scale(0.100000,-0.100000)"
fill="#000000" stroke="none">
<path d="M1052 3500 l3 -2625 1540 1 c847 0 1581 3 1630 7 77 6 163 19 290 43
284 53 607 206 859 408 464 372 796 1000 891 1686 24 167 30 265 30 475 0 243
-18 459 -50 615 -3 14 -10 48 -15 75 -49 245 -157 544 -282 777 -53 99 -182
303 -212 334 -6 6 -24 29 -41 50 -79 102 -225 246 -345 339 -47 36 -90 70 -97
75 -7 6 -16 10 -22 10 -5 0 -11 4 -13 8 -9 22 -257 153 -373 198 -177 67 -365
114 -510 129 -33 3 -78 9 -100 12 -22 3 -748 6 -1613 7 l-1572 2 2 -2626z
m3182 2267 c21 -4 57 -9 80 -12 84 -12 103 -16 201 -41 153 -39 306 -103 462
-193 129 -74 358 -281 469 -423 99 -126 222 -341 303 -528 56 -132 127 -384
156 -555 9 -55 18 -111 20 -125 19 -110 28 -554 13 -665 -4 -27 -10 -77 -13
-110 -18 -168 -82 -428 -151 -615 -42 -114 -154 -350 -166 -350 -4 0 -8 -5 -8
-12 0 -10 -125 -205 -139 -218 -3 -3 -30 -34 -60 -70 -81 -96 -117 -133 -206
-209 -86 -73 -208 -161 -224 -161 -5 0 -11 -4 -13 -9 -5 -15 -228 -118 -323
-150 -102 -34 -244 -67 -325 -76 -30 -3 -73 -8 -95 -12 -43 -7 -2782 -12
-2802 -5 -10 3 -13 467 -13 2276 l0 2271 1398 -1 c768 -1 1414 -4 1436 -7z"/>
<path d="M3611 4813 l-333 -666 -373 373 -373 373 -12 -44 c-28 -108 -32 -125
-35 -139 -2 -8 -11 -44 -20 -80 -9 -36 -18 -72 -20 -80 -2 -8 -11 -44 -20 -80
-9 -36 -18 -72 -20 -80 -2 -8 -11 -44 -20 -80 -9 -36 -18 -72 -20 -80 -2 -8
-11 -44 -20 -80 -9 -36 -18 -72 -20 -80 -2 -8 -8 -35 -15 -60 -7 -25 -13 -52
-15 -60 -2 -8 -13 -53 -25 -100 -12 -47 -23 -92 -25 -100 -2 -8 -38 -152 -80
-320 -42 -168 -78 -312 -80 -320 -2 -8 -17 -71 -35 -140 -18 -69 -33 -132 -35
-140 -2 -8 -13 -53 -25 -100 -12 -47 -23 -92 -25 -100 -2 -8 -11 -44 -20 -80
-9 -36 -18 -72 -20 -80 -2 -8 -20 -80 -40 -160 -20 -80 -38 -153 -40 -163 -3
-10 -7 -27 -10 -37 -3 -10 -8 -28 -10 -39 -9 -38 -13 -55 -55 -221 -23 -91
-43 -173 -45 -183 -3 -10 -7 -27 -10 -37 -3 -10 -8 -27 -10 -37 -19 -89 -19
-86 1 -80 27 8 328 85 356 91 13 3 104 26 203 51 99 25 189 47 200 50 11 2
353 87 760 189 407 103 752 188 767 191 15 3 39 10 53 15 14 5 40 12 58 15 18
3 64 14 102 25 39 11 81 21 95 24 14 3 50 12 80 20 30 8 66 17 80 20 14 3 50
12 82 20 31 8 67 18 80 20 12 3 48 12 78 20 30 8 66 17 80 20 79 17 280 71
280 75 0 3 -166 172 -370 375 l-369 370 669 334 669 334 -77 154 c-42 85 -80
154 -83 154 -4 0 -404 -199 -889 -441 l-882 -441 326 -326 c180 -180 323 -328
319 -329 -15 -5 -1338 -335 -1358 -339 -11 -2 -204 -51 -430 -108 -225 -57
-412 -102 -414 -100 -2 2 33 151 79 331 45 180 83 335 85 343 2 8 47 188 100
400 53 212 98 392 100 400 2 8 38 152 80 320 42 168 79 314 81 325 10 49 21
80 29 79 4 -1 151 -144 326 -319 175 -175 321 -317 323 -314 4 4 764 1521 847
1691 l38 77 -149 76 c-82 41 -153 75 -157 75 -5 0 -159 -300 -342 -667z"/>
</g>
</svg>
