<?xml version="1.0" encoding="utf-8"?>
<!-- Generator: Adobe Illustrator 24.0.1, SVG Export Plug-In . SVG Version: 6.00 Build 0)  -->
<svg version="1.1" id="Layer_2_1_" xmlns="http://www.w3.org/2000/svg" xmlns:xlink="http://www.w3.org/1999/xlink" x="0px" y="0px"
	 viewBox="0 0 60 60" style="enable-background:new 0 0 60 60;" xml:space="preserve">
<style type="text/css">
	.st0{fill:none;stroke:#7F7F7F;stroke-width:0.5;stroke-miterlimit:10;}
	.st1{fill:#7F7F7F;}
</style>
<circle id="r3" class="st0" cx="30" cy="30" r="26"/>
<circle id="r2" class="st0" cx="30" cy="30" r="15.8"/>
<circle id="r1" class="st0" cx="30" cy="30" r="11.1"/>
<line id="diag2" class="st0" x1="4" y1="4" x2="56" y2="56"/>
<line id="diag1" class="st0" x1="4" y1="56" x2="56" y2="4"/>
<g id="horizontal">
	<line id="_x35__1_" class="st0" x1="4" y1="56" x2="56" y2="56"/>
	<line id="_x34__1_" class="st0" x1="0" y1="41.1" x2="60" y2="41.1"/>
	<line id="_x33__1_" class="st0" x1="0" y1="30" x2="60" y2="30"/>
	<line id="_x32__1_" class="st0" x1="0" y1="18.9" x2="60" y2="18.9"/>
	<line id="_x31__1_" class="st0" x1="4" y1="4" x2="56" y2="4"/>
</g>
<g id="vertical">
	<line id="_x35_" class="st0" x1="56" y1="4" x2="56" y2="56"/>
	<line id="_x34_" class="st0" x1="41.1" y1="0" x2="41.1" y2="60"/>
	<line id="_x33_" class="st0" x1="30" y1="0" x2="30" y2="60"/>
	<line id="_x32_" class="st0" x1="18.9" y1="0" x2="18.9" y2="60"/>
	<line id="_x31_" class="st0" x1="4" y1="4" x2="4" y2="56"/>
</g>
<g>
	<path class="st1" d="M47.5,0.5c6.6,0,12,5.4,12,12v35c0,6.6-5.4,12-12,12h-35c-6.6,0-12-5.4-12-12v-35c0-6.6,5.4-12,12-12H47.5
		 M47.5,0h-35C5.6,0,0,5.6,0,12.5v35C0,54.4,5.6,60,12.5,60h35C54.4,60,60,54.4,60,47.5v-35C60,5.6,54.4,0,47.5,0L47.5,0z"/>
</g>
</svg>
