<svg width="632pt" height="260pt" viewBox="0.00 0.00 632.00 260.00" xmlns="http://www.w3.org/2000/svg" xmlns:xlink="http://www.w3.org/1999/xlink">
<g id="graph1" class="graph" transform="scale(1 1) rotate(0) translate(4 256)">
<title>Dependency</title>
<polygon fill="white" stroke="white" points="-4,5 -4,-256 629,-256 629,5 -4,5"></polygon>
<!-- . -->
<g id="node1" class="node"><title>.</title>
<ellipse fill="none" stroke="black" cx="283" cy="-234" rx="27" ry="18"></ellipse>
<text text-anchor="middle" x="283" y="-229.8" font-family="Times,serif" font-size="14.00">.</text>
</g>
<!-- html_root -->
<g id="node3" class="node"><title>html_root</title>
<ellipse fill="none" stroke="black" cx="49" cy="-162" rx="49.1927" ry="18"></ellipse>
<text text-anchor="middle" x="49" y="-157.8" font-family="Times,serif" font-size="14.00">html_root</text>
</g>
<!-- .&#45;&gt;html_root -->
<g id="edge2" class="edge"><title>.-&gt;html_root</title>
<path fill="none" stroke="black" d="M258.839,-225.772C220.494,-214.302 145.019,-191.724 95.8145,-177.004"></path>
<polygon fill="black" stroke="black" points="96.6233,-173.593 86.0396,-174.08 94.617,-180.299 96.6233,-173.593"></polygon>
</g>
<!-- download_itunes -->
<g id="node5" class="node"><title>download_itunes</title>
<ellipse fill="none" stroke="black" cx="196" cy="-162" rx="80.3504" ry="18"></ellipse>
<text text-anchor="middle" x="196" y="-157.8" font-family="Times,serif" font-size="14.00">download_itunes</text>
</g>
<!-- .&#45;&gt;download_itunes -->
<g id="edge4" class="edge"><title>.-&gt;download_itunes</title>
<path fill="none" stroke="black" d="M266.226,-219.503C254.338,-209.939 238.103,-196.876 224.237,-185.719"></path>
<polygon fill="black" stroke="black" points="226.383,-182.954 216.398,-179.412 221.995,-188.408 226.383,-182.954"></polygon>
</g>
<!-- bundle_combine -->
<g id="node17" class="node"><title>bundle_combine</title>
<ellipse fill="none" stroke="black" cx="370" cy="-162" rx="75.1062" ry="18"></ellipse>
<text text-anchor="middle" x="370" y="-157.8" font-family="Times,serif" font-size="14.00">bundle_combine</text>
</g>
<!-- .&#45;&gt;bundle_combine -->
<g id="edge16" class="edge"><title>.-&gt;bundle_combine</title>
<path fill="none" stroke="black" d="M299.774,-219.503C311.662,-209.939 327.897,-196.876 341.763,-185.719"></path>
<polygon fill="black" stroke="black" points="344.005,-188.408 349.602,-179.412 339.617,-182.954 344.005,-188.408"></polygon>
</g>
<!-- download_tracker -->
<g id="node24" class="node"><title>download_tracker</title>
<ellipse fill="none" stroke="black" cx="544" cy="-162" rx="80.1284" ry="18"></ellipse>
<text text-anchor="middle" x="544" y="-157.8" font-family="Times,serif" font-size="14.00">download_tracker</text>
</g>
<!-- .&#45;&gt;download_tracker -->
<g id="edge26" class="edge"><title>.-&gt;download_tracker</title>
<path fill="none" stroke="black" d="M307.554,-226.415C347.777,-215.627 428.818,-193.892 484.722,-178.898"></path>
<polygon fill="black" stroke="black" points="485.753,-182.246 494.505,-176.275 483.94,-175.484 485.753,-182.246"></polygon>
</g>
<!-- index_app_names -->
<g id="node7" class="node"><title>index_app_names</title>
<ellipse fill="none" stroke="black" cx="196" cy="-90" rx="80.1456" ry="18"></ellipse>
<text text-anchor="middle" x="196" y="-85.8" font-family="Times,serif" font-size="14.00">index_app_names</text>
</g>
<!-- download_itunes&#45;&gt;index_app_names -->
<g id="edge6" class="edge"><title>download_itunes-&gt;index_app_names</title>
<path fill="none" stroke="black" d="M196,-143.697C196,-135.983 196,-126.712 196,-118.112"></path>
<polygon fill="black" stroke="black" points="199.5,-118.104 196,-108.104 192.5,-118.104 199.5,-118.104"></polygon>
</g>
<!-- html_bundle -->
<g id="node9" class="node"><title>html_bundle</title>
<ellipse fill="none" stroke="black" cx="261" cy="-18" rx="59.2871" ry="18"></ellipse>
<text text-anchor="middle" x="261" y="-13.8" font-family="Times,serif" font-size="14.00">html_bundle</text>
</g>
<!-- index_app_names&#45;&gt;html_bundle -->
<g id="edge8" class="edge"><title>index_app_names-&gt;html_bundle</title>
<path fill="none" stroke="black" d="M211.735,-72.055C219.719,-63.4567 229.562,-52.8566 238.345,-43.3974"></path>
<polygon fill="black" stroke="black" points="241.17,-45.4986 245.41,-35.789 236.041,-40.7354 241.17,-45.4986"></polygon>
</g>
<!-- html_index_apps -->
<g id="node11" class="node"><title>html_index_apps</title>
<ellipse fill="none" stroke="black" cx="106" cy="-18" rx="77.3345" ry="18"></ellipse>
<text text-anchor="middle" x="106" y="-13.8" font-family="Times,serif" font-size="14.00">html_index_apps</text>
</g>
<!-- index_app_names&#45;&gt;html_index_apps -->
<g id="edge10" class="edge"><title>index_app_names-&gt;html_index_apps</title>
<path fill="none" stroke="black" d="M174.671,-72.411C162.902,-63.2575 148.114,-51.7553 135.278,-41.7715"></path>
<polygon fill="black" stroke="black" points="137.218,-38.8467 127.176,-35.4699 132.92,-44.3721 137.218,-38.8467"></polygon>
</g>
<!-- html_index_domains -->
<g id="node13" class="node"><title>html_index_domains</title>
<ellipse fill="none" stroke="black" cx="431" cy="-18" rx="92.3709" ry="18"></ellipse>
<text text-anchor="middle" x="431" y="-13.8" font-family="Times,serif" font-size="14.00">html_index_domains</text>
</g>
<!-- index_app_names&#45;&gt;html_index_domains -->
<g id="edge12" class="edge"><title>index_app_names-&gt;html_index_domains</title>
<path fill="none" stroke="black" d="M242.148,-75.2538C279.565,-64.1084 332.517,-48.3355 372.833,-36.3263"></path>
<polygon fill="black" stroke="black" points="373.948,-39.6464 382.532,-33.4372 371.949,-32.9377 373.948,-39.6464"></polygon>
</g>
<!-- index_meta -->
<g id="node14" class="node"><title>index_meta</title>
<ellipse fill="none" stroke="black" cx="351" cy="-90" rx="56.1351" ry="18"></ellipse>
<text text-anchor="middle" x="351" y="-85.8" font-family="Times,serif" font-size="14.00">index_meta</text>
</g>
<!-- index_meta&#45;&gt;html_bundle -->
<g id="edge20" class="edge"><title>index_meta-&gt;html_bundle</title>
<path fill="none" stroke="black" d="M330.578,-73.1159C318.466,-63.6958 302.928,-51.6106 289.609,-41.2514"></path>
<polygon fill="black" stroke="black" points="291.695,-38.4402 281.653,-35.0635 287.398,-43.9657 291.695,-38.4402"></polygon>
</g>
<!-- index_meta&#45;&gt;html_index_domains -->
<g id="edge14" class="edge"><title>index_meta-&gt;html_index_domains</title>
<path fill="none" stroke="black" d="M369.555,-72.7646C379.906,-63.7076 392.977,-52.2705 404.399,-42.2756"></path>
<polygon fill="black" stroke="black" points="406.769,-44.8525 411.99,-35.6334 402.16,-39.5845 406.769,-44.8525"></polygon>
</g>
<!-- bundle_combine&#45;&gt;index_meta -->
<g id="edge18" class="edge"><title>bundle_combine-&gt;index_meta</title>
<path fill="none" stroke="black" d="M365.303,-143.697C363.187,-135.898 360.638,-126.509 358.282,-117.829"></path>
<polygon fill="black" stroke="black" points="361.64,-116.838 355.643,-108.104 354.884,-118.672 361.64,-116.838"></polygon>
</g>
<!-- index_domains -->
<g id="node21" class="node"><title>index_domains</title>
<ellipse fill="none" stroke="black" cx="495" cy="-90" rx="70.0665" ry="18"></ellipse>
<text text-anchor="middle" x="495" y="-85.8" font-family="Times,serif" font-size="14.00">index_domains</text>
</g>
<!-- bundle_combine&#45;&gt;index_domains -->
<g id="edge22" class="edge"><title>bundle_combine-&gt;index_domains</title>
<path fill="none" stroke="black" d="M398.052,-145.291C415.824,-135.338 439,-122.36 458.236,-111.588"></path>
<polygon fill="black" stroke="black" points="460.026,-114.597 467.041,-106.657 456.606,-108.489 460.026,-114.597"></polygon>
</g>
<!-- index_domains&#45;&gt;html_index_domains -->
<g id="edge24" class="edge"><title>index_domains-&gt;html_index_domains</title>
<path fill="none" stroke="black" d="M479.833,-72.411C471.899,-63.7338 462.036,-52.946 453.255,-43.3418"></path>
<polygon fill="black" stroke="black" points="455.834,-40.9748 446.503,-35.9562 450.667,-45.6982 455.834,-40.9748"></polygon>
</g>
</g>
</svg>