<svg width="686pt" height="260pt" viewBox="0.00 0.00 686.00 260.00" xmlns="http://www.w3.org/2000/svg" xmlns:xlink="http://www.w3.org/1999/xlink">
<g id="graph1" class="graph" transform="scale(1 1) rotate(0) translate(4 256)">
<title>Dependency</title>
<polygon fill="white" stroke="white" points="-4,5 -4,-256 683,-256 683,5 -4,5"></polygon>
<!-- . -->
<g id="node1" class="node"><title>.</title>
<ellipse fill="none" stroke="black" cx="338" cy="-234" rx="27" ry="18"></ellipse>
<text text-anchor="middle" x="338" y="-229.8" font-family="Times,serif" font-size="14.00">.</text>
</g>
<!-- html_root -->
<g id="node3" class="node"><title>html_root</title>
<ellipse fill="none" stroke="black" cx="109" cy="-162" rx="49.1927" ry="18"></ellipse>
<text text-anchor="middle" x="109" y="-157.8" font-family="Times,serif" font-size="14.00">html_root</text>
</g>
<!-- .&#45;&gt;html_root -->
<g id="edge2" class="edge"><title>.-&gt;html_root</title>
<path fill="none" stroke="black" d="M313.926,-225.641C276.403,-214.171 203.308,-191.828 155.329,-177.162"></path>
<polygon fill="black" stroke="black" points="156.08,-173.731 145.493,-174.155 154.033,-180.426 156.08,-173.731"></polygon>
</g>
<!-- download_itunes -->
<g id="node5" class="node"><title>download_itunes</title>
<ellipse fill="none" stroke="black" cx="253" cy="-162" rx="77.0235" ry="18"></ellipse>
<text text-anchor="middle" x="253" y="-157.8" font-family="Times,serif" font-size="14.00">download_itunes</text>
</g>
<!-- .&#45;&gt;download_itunes -->
<g id="edge4" class="edge"><title>.-&gt;download_itunes</title>
<path fill="none" stroke="black" d="M321.611,-219.503C310.105,-210.028 294.431,-197.12 280.968,-186.033"></path>
<polygon fill="black" stroke="black" points="282.873,-183.067 272.929,-179.412 278.423,-188.471 282.873,-183.067"></polygon>
</g>
<!-- bundle_combine -->
<g id="node22" class="node"><title>bundle_combine</title>
<ellipse fill="none" stroke="black" cx="423" cy="-162" rx="75.1062" ry="18"></ellipse>
<text text-anchor="middle" x="423" y="-157.8" font-family="Times,serif" font-size="14.00">bundle_combine</text>
</g>
<!-- .&#45;&gt;bundle_combine -->
<g id="edge22" class="edge"><title>.-&gt;bundle_combine</title>
<path fill="none" stroke="black" d="M354.389,-219.503C365.895,-210.028 381.569,-197.12 395.032,-186.033"></path>
<polygon fill="black" stroke="black" points="397.577,-188.471 403.071,-179.412 393.127,-183.067 397.577,-188.471"></polygon>
</g>
<!-- download_tracker -->
<g id="node29" class="node"><title>download_tracker</title>
<ellipse fill="none" stroke="black" cx="597" cy="-162" rx="80.1284" ry="18"></ellipse>
<text text-anchor="middle" x="597" y="-157.8" font-family="Times,serif" font-size="14.00">download_tracker</text>
</g>
<!-- .&#45;&gt;download_tracker -->
<g id="edge32" class="edge"><title>.-&gt;download_tracker</title>
<path fill="none" stroke="black" d="M362.834,-226.288C402.847,-215.474 482.678,-193.898 537.928,-178.965"></path>
<polygon fill="black" stroke="black" points="538.86,-182.339 547.6,-176.351 537.034,-175.582 538.86,-182.339"></polygon>
</g>
<!-- index_app_names -->
<g id="node7" class="node"><title>index_app_names</title>
<ellipse fill="none" stroke="black" cx="253" cy="-90" rx="80.1456" ry="18"></ellipse>
<text text-anchor="middle" x="253" y="-85.8" font-family="Times,serif" font-size="14.00">index_app_names</text>
</g>
<!-- download_itunes&#45;&gt;index_app_names -->
<g id="edge6" class="edge"><title>download_itunes-&gt;index_app_names</title>
<path fill="none" stroke="black" d="M253,-143.697C253,-135.983 253,-126.712 253,-118.112"></path>
<polygon fill="black" stroke="black" points="256.5,-118.104 253,-108.104 249.5,-118.104 256.5,-118.104"></polygon>
</g>
<!-- index_categories -->
<g id="node9" class="node"><title>index_categories</title>
<ellipse fill="none" stroke="black" cx="76" cy="-90" rx="76.1936" ry="18"></ellipse>
<text text-anchor="middle" x="76" y="-85.8" font-family="Times,serif" font-size="14.00">index_categories</text>
</g>
<!-- download_itunes&#45;&gt;index_categories -->
<g id="edge8" class="edge"><title>download_itunes-&gt;index_categories</title>
<path fill="none" stroke="black" d="M215.463,-146.155C188.476,-135.482 151.899,-121.016 122.974,-109.577"></path>
<polygon fill="black" stroke="black" points="124.069,-106.247 113.483,-105.824 121.495,-112.756 124.069,-106.247"></polygon>
</g>
<!-- html_categories -->
<g id="node11" class="node"><title>html_categories</title>
<ellipse fill="none" stroke="black" cx="76" cy="-18" rx="72.5712" ry="18"></ellipse>
<text text-anchor="middle" x="76" y="-13.8" font-family="Times,serif" font-size="14.00">html_categories</text>
</g>
<!-- index_app_names&#45;&gt;html_categories -->
<g id="edge18" class="edge"><title>index_app_names-&gt;html_categories</title>
<path fill="none" stroke="black" d="M215.029,-73.9832C187.924,-63.2638 151.309,-48.7834 122.459,-37.3738"></path>
<polygon fill="black" stroke="black" points="123.584,-34.055 112.998,-33.632 121.01,-40.5644 123.584,-34.055"></polygon>
</g>
<!-- html_bundle -->
<g id="node13" class="node"><title>html_bundle</title>
<ellipse fill="none" stroke="black" cx="399" cy="-18" rx="59.2871" ry="18"></ellipse>
<text text-anchor="middle" x="399" y="-13.8" font-family="Times,serif" font-size="14.00">html_bundle</text>
</g>
<!-- index_app_names&#45;&gt;html_bundle -->
<g id="edge12" class="edge"><title>index_app_names-&gt;html_bundle</title>
<path fill="none" stroke="black" d="M285.402,-73.4647C307.258,-62.986 336.232,-49.0943 359.448,-37.9633"></path>
<polygon fill="black" stroke="black" points="361.178,-41.0153 368.682,-33.5359 358.152,-34.7033 361.178,-41.0153"></polygon>
</g>
<!-- html_index_apps -->
<g id="node15" class="node"><title>html_index_apps</title>
<ellipse fill="none" stroke="black" cx="244" cy="-18" rx="77.3345" ry="18"></ellipse>
<text text-anchor="middle" x="244" y="-13.8" font-family="Times,serif" font-size="14.00">html_index_apps</text>
</g>
<!-- index_app_names&#45;&gt;html_index_apps -->
<g id="edge14" class="edge"><title>index_app_names-&gt;html_index_apps</title>
<path fill="none" stroke="black" d="M250.775,-71.6966C249.783,-63.9827 248.592,-54.7125 247.486,-46.1124"></path>
<polygon fill="black" stroke="black" points="250.946,-45.5763 246.199,-36.1043 244.003,-46.469 250.946,-45.5763"></polygon>
</g>
<!-- html_index_domains -->
<g id="node17" class="node"><title>html_index_domains</title>
<ellipse fill="none" stroke="black" cx="569" cy="-18" rx="92.3709" ry="18"></ellipse>
<text text-anchor="middle" x="569" y="-13.8" font-family="Times,serif" font-size="14.00">html_index_domains</text>
</g>
<!-- index_app_names&#45;&gt;html_index_domains -->
<g id="edge16" class="edge"><title>index_app_names-&gt;html_index_domains</title>
<path fill="none" stroke="black" d="M308.043,-76.8069C361.506,-64.9638 442.827,-46.9497 500.461,-34.1828"></path>
<polygon fill="black" stroke="black" points="501.568,-37.5224 510.575,-31.9424 500.054,-30.688 501.568,-37.5224"></polygon>
</g>
<!-- index_categories&#45;&gt;html_categories -->
<g id="edge10" class="edge"><title>index_categories-&gt;html_categories</title>
<path fill="none" stroke="black" d="M76,-71.6966C76,-63.9827 76,-54.7125 76,-46.1124"></path>
<polygon fill="black" stroke="black" points="79.5001,-46.1043 76,-36.1043 72.5001,-46.1044 79.5001,-46.1043"></polygon>
</g>
<!-- index_meta -->
<g id="node19" class="node"><title>index_meta</title>
<ellipse fill="none" stroke="black" cx="423" cy="-90" rx="56.1351" ry="18"></ellipse>
<text text-anchor="middle" x="423" y="-85.8" font-family="Times,serif" font-size="14.00">index_meta</text>
</g>
<!-- index_meta&#45;&gt;html_bundle -->
<g id="edge26" class="edge"><title>index_meta-&gt;html_bundle</title>
<path fill="none" stroke="black" d="M417.19,-72.055C414.489,-64.1762 411.211,-54.6165 408.187,-45.794"></path>
<polygon fill="black" stroke="black" points="411.477,-44.5996 404.923,-36.2753 404.855,-46.8699 411.477,-44.5996"></polygon>
</g>
<!-- index_meta&#45;&gt;html_index_domains -->
<g id="edge20" class="edge"><title>index_meta-&gt;html_index_domains</title>
<path fill="none" stroke="black" d="M452.898,-74.6655C474.182,-64.4605 503.084,-50.6037 526.726,-39.2685"></path>
<polygon fill="black" stroke="black" points="528.329,-42.3816 535.833,-34.9022 525.302,-36.0695 528.329,-42.3816"></polygon>
</g>
<!-- bundle_combine&#45;&gt;index_meta -->
<g id="edge24" class="edge"><title>bundle_combine-&gt;index_meta</title>
<path fill="none" stroke="black" d="M423,-143.697C423,-135.983 423,-126.712 423,-118.112"></path>
<polygon fill="black" stroke="black" points="426.5,-118.104 423,-108.104 419.5,-118.104 426.5,-118.104"></polygon>
</g>
<!-- index_domains -->
<g id="node26" class="node"><title>index_domains</title>
<ellipse fill="none" stroke="black" cx="568" cy="-90" rx="70.0665" ry="18"></ellipse>
<text text-anchor="middle" x="568" y="-85.8" font-family="Times,serif" font-size="14.00">index_domains</text>
</g>
<!-- bundle_combine&#45;&gt;index_domains -->
<g id="edge28" class="edge"><title>bundle_combine-&gt;index_domains</title>
<path fill="none" stroke="black" d="M454.821,-145.638C476.069,-135.38 504.21,-121.795 527.116,-110.737"></path>
<polygon fill="black" stroke="black" points="528.769,-113.825 536.253,-106.326 525.726,-107.522 528.769,-113.825"></polygon>
</g>
<!-- index_domains&#45;&gt;html_index_domains -->
<g id="edge30" class="edge"><title>index_domains-&gt;html_index_domains</title>
<path fill="none" stroke="black" d="M568.247,-71.6966C568.357,-63.9827 568.49,-54.7125 568.613,-46.1124"></path>
<polygon fill="black" stroke="black" points="572.112,-46.1533 568.756,-36.1043 565.113,-46.0533 572.112,-46.1533"></polygon>
</g>
</g>
</svg>