<svg width="657pt" height="260pt" viewBox="0.00 0.00 657.00 260.00" xmlns="http://www.w3.org/2000/svg" xmlns:xlink="http://www.w3.org/1999/xlink">
<g id="graph1" class="graph" transform="scale(1 1) rotate(0) translate(4 256)">
<title>Dependency</title>
<polygon fill="white" stroke="white" points="-4,5 -4,-256 654,-256 654,5 -4,5"></polygon>
<!-- . -->
<g id="node1" class="node"><title>.</title>
<ellipse fill="none" stroke="black" cx="303" cy="-234" rx="27" ry="18"></ellipse>
<text text-anchor="middle" x="303" y="-229.8" font-family="Times,serif" font-size="14.00">.</text>
</g>
<!-- html_root -->
<g id="node3" class="node"><title>html_root</title>
<ellipse fill="none" stroke="black" cx="73" cy="-162" rx="49.1927" ry="18"></ellipse>
<text text-anchor="middle" x="73" y="-157.8" font-family="Times,serif" font-size="14.00">html_root</text>
</g>
<!-- .&#45;&gt;html_root -->
<g id="edge2" class="edge"><title>.-&gt;html_root</title>
<path fill="none" stroke="black" d="M278.821,-225.641C241.055,-214.147 167.413,-191.734 119.229,-177.07"></path>
<polygon fill="black" stroke="black" points="120.239,-173.719 109.653,-174.155 118.2,-180.415 120.239,-173.719"></polygon>
</g>
<!-- bundle_download -->
<g id="node5" class="node"><title>bundle_download</title>
<ellipse fill="none" stroke="black" cx="390" cy="-162" rx="80.3504" ry="18"></ellipse>
<text text-anchor="middle" x="390" y="-157.8" font-family="Times,serif" font-size="14.00">bundle_download</text>
</g>
<!-- .&#45;&gt;bundle_download -->
<g id="edge4" class="edge"><title>.-&gt;bundle_download</title>
<path fill="none" stroke="black" d="M319.774,-219.503C331.662,-209.939 347.897,-196.876 361.763,-185.719"></path>
<polygon fill="black" stroke="black" points="364.005,-188.408 369.602,-179.412 359.617,-182.954 364.005,-188.408"></polygon>
</g>
<!-- bundle_combine -->
<g id="node17" class="node"><title>bundle_combine</title>
<ellipse fill="none" stroke="black" cx="216" cy="-162" rx="75.1062" ry="18"></ellipse>
<text text-anchor="middle" x="216" y="-157.8" font-family="Times,serif" font-size="14.00">bundle_combine</text>
</g>
<!-- .&#45;&gt;bundle_combine -->
<g id="edge16" class="edge"><title>.-&gt;bundle_combine</title>
<path fill="none" stroke="black" d="M286.226,-219.503C274.338,-209.939 258.103,-196.876 244.237,-185.719"></path>
<polygon fill="black" stroke="black" points="246.383,-182.954 236.398,-179.412 241.995,-188.408 246.383,-182.954"></polygon>
</g>
<!-- tracker_download -->
<g id="node24" class="node"><title>tracker_download</title>
<ellipse fill="none" stroke="black" cx="569" cy="-162" rx="80.1284" ry="18"></ellipse>
<text text-anchor="middle" x="569" y="-157.8" font-family="Times,serif" font-size="14.00">tracker_download</text>
</g>
<!-- .&#45;&gt;tracker_download -->
<g id="edge26" class="edge"><title>.-&gt;tracker_download</title>
<path fill="none" stroke="black" d="M328.025,-226.415C369.14,-215.595 452.103,-193.762 509.094,-178.765"></path>
<polygon fill="black" stroke="black" points="510.284,-182.071 519.064,-176.141 508.502,-175.301 510.284,-182.071"></polygon>
</g>
<!-- index_app_names -->
<g id="node7" class="node"><title>index_app_names</title>
<ellipse fill="none" stroke="black" cx="407" cy="-90" rx="80.1456" ry="18"></ellipse>
<text text-anchor="middle" x="407" y="-85.8" font-family="Times,serif" font-size="14.00">index_app_names</text>
</g>
<!-- bundle_download&#45;&gt;index_app_names -->
<g id="edge6" class="edge"><title>bundle_download-&gt;index_app_names</title>
<path fill="none" stroke="black" d="M394.202,-143.697C396.096,-135.898 398.377,-126.509 400.484,-117.829"></path>
<polygon fill="black" stroke="black" points="403.887,-118.648 402.846,-108.104 397.085,-116.996 403.887,-118.648"></polygon>
</g>
<!-- html_bundle -->
<g id="node9" class="node"><title>html_bundle</title>
<ellipse fill="none" stroke="black" cx="334" cy="-18" rx="59.2871" ry="18"></ellipse>
<text text-anchor="middle" x="334" y="-13.8" font-family="Times,serif" font-size="14.00">html_bundle</text>
</g>
<!-- index_app_names&#45;&gt;html_bundle -->
<g id="edge8" class="edge"><title>index_app_names-&gt;html_bundle</title>
<path fill="none" stroke="black" d="M389.7,-72.411C380.427,-63.519 368.843,-52.4107 358.644,-42.6309"></path>
<polygon fill="black" stroke="black" points="360.816,-39.8649 351.176,-35.4699 355.971,-44.9174 360.816,-39.8649"></polygon>
</g>
<!-- html_index_apps -->
<g id="node11" class="node"><title>html_index_apps</title>
<ellipse fill="none" stroke="black" cx="489" cy="-18" rx="77.3345" ry="18"></ellipse>
<text text-anchor="middle" x="489" y="-13.8" font-family="Times,serif" font-size="14.00">html_index_apps</text>
</g>
<!-- index_app_names&#45;&gt;html_index_apps -->
<g id="edge10" class="edge"><title>index_app_names-&gt;html_index_apps</title>
<path fill="none" stroke="black" d="M426.433,-72.411C437.053,-63.3446 450.373,-51.9742 461.99,-42.0572"></path>
<polygon fill="black" stroke="black" points="464.373,-44.6246 469.707,-35.4699 459.829,-39.3006 464.373,-44.6246"></polygon>
</g>
<!-- html_index_domains -->
<g id="node13" class="node"><title>html_index_domains</title>
<ellipse fill="none" stroke="black" cx="164" cy="-18" rx="92.3709" ry="18"></ellipse>
<text text-anchor="middle" x="164" y="-13.8" font-family="Times,serif" font-size="14.00">html_index_domains</text>
</g>
<!-- index_app_names&#45;&gt;html_index_domains -->
<g id="edge12" class="edge"><title>index_app_names-&gt;html_index_domains</title>
<path fill="none" stroke="black" d="M359.859,-75.4203C320.888,-64.1939 265.332,-48.1903 223.337,-36.093"></path>
<polygon fill="black" stroke="black" points="224.092,-32.6682 213.514,-33.2633 222.154,-39.3947 224.092,-32.6682"></polygon>
</g>
<!-- index_meta -->
<g id="node14" class="node"><title>index_meta</title>
<ellipse fill="none" stroke="black" cx="56" cy="-90" rx="56.1351" ry="18"></ellipse>
<text text-anchor="middle" x="56" y="-85.8" font-family="Times,serif" font-size="14.00">index_meta</text>
</g>
<!-- index_meta&#45;&gt;html_index_domains -->
<g id="edge14" class="edge"><title>index_meta-&gt;html_index_domains</title>
<path fill="none" stroke="black" d="M79.7011,-73.6382C94.3705,-64.1302 113.451,-51.7635 129.748,-41.2006"></path>
<polygon fill="black" stroke="black" points="131.982,-43.9235 138.47,-35.5475 128.174,-38.0494 131.982,-43.9235"></polygon>
</g>
<!-- bundle_combine&#45;&gt;html_bundle -->
<g id="edge20" class="edge"><title>bundle_combine-&gt;html_bundle</title>
<path fill="none" stroke="black" d="M238.83,-144.654C251.536,-134.888 267.134,-121.737 279,-108 295.683,-88.6865 310.622,-63.7629 320.705,-45.2056"></path>
<polygon fill="black" stroke="black" points="323.917,-46.6183 325.518,-36.1451 317.736,-43.334 323.917,-46.6183"></polygon>
</g>
<!-- bundle_combine&#45;&gt;index_meta -->
<g id="edge18" class="edge"><title>bundle_combine-&gt;index_meta</title>
<path fill="none" stroke="black" d="M181.676,-145.983C156.897,-135.142 123.325,-120.455 97.1134,-108.987"></path>
<polygon fill="black" stroke="black" points="98.3838,-105.723 87.8194,-104.921 95.5781,-112.136 98.3838,-105.723"></polygon>
</g>
<!-- index_domains -->
<g id="node21" class="node"><title>index_domains</title>
<ellipse fill="none" stroke="black" cx="200" cy="-90" rx="70.0665" ry="18"></ellipse>
<text text-anchor="middle" x="200" y="-85.8" font-family="Times,serif" font-size="14.00">index_domains</text>
</g>
<!-- bundle_combine&#45;&gt;index_domains -->
<g id="edge22" class="edge"><title>bundle_combine-&gt;index_domains</title>
<path fill="none" stroke="black" d="M212.045,-143.697C210.282,-135.983 208.163,-126.712 206.197,-118.112"></path>
<polygon fill="black" stroke="black" points="209.55,-117.073 203.91,-108.104 202.726,-118.633 209.55,-117.073"></polygon>
</g>
<!-- index_domains&#45;&gt;html_index_domains -->
<g id="edge24" class="edge"><title>index_domains-&gt;html_index_domains</title>
<path fill="none" stroke="black" d="M191.285,-72.055C187.146,-64.0067 182.105,-54.2046 177.488,-45.2259"></path>
<polygon fill="black" stroke="black" points="180.57,-43.5675 172.884,-36.2753 174.345,-46.7689 180.57,-43.5675"></polygon>
</g>
</g>
</svg>