<svg width="660pt" height="404pt" viewBox="0.00 0.00 660.00 404.00" xmlns="http://www.w3.org/2000/svg" xmlns:xlink="http://www.w3.org/1999/xlink">
<g id="graph1" class="graph" transform="scale(1 1) rotate(0) translate(4 400)">
<title>Dependency</title>
<polygon fill="white" stroke="white" points="-4,5 -4,-400 657,-400 657,5 -4,5"></polygon>
<!-- . -->
<g id="node1" class="node"><title>.</title>
<ellipse fill="none" stroke="black" cx="299" cy="-378" rx="27" ry="18"></ellipse>
<text text-anchor="middle" x="299" y="-373.8" font-family="Times,serif" font-size="14.00">.</text>
</g>
<!-- download_itunes -->
<g id="node3" class="node"><title>download_itunes</title>
<ellipse fill="none" stroke="black" cx="299" cy="-306" rx="77.0235" ry="18"></ellipse>
<text text-anchor="middle" x="299" y="-301.8" font-family="Times,serif" font-size="14.00">download_itunes</text>
</g>
<!-- .&#45;&gt;download_itunes -->
<g id="edge2" class="edge"><title>.-&gt;download_itunes</title>
<path fill="none" stroke="black" d="M299,-359.697C299,-351.983 299,-342.712 299,-334.112"></path>
<polygon fill="black" stroke="black" points="302.5,-334.104 299,-324.104 295.5,-334.104 302.5,-334.104"></polygon>
</g>
<!-- bundle_combine -->
<g id="node5" class="node"><title>bundle_combine</title>
<ellipse fill="none" stroke="black" cx="129" cy="-306" rx="75.1062" ry="18"></ellipse>
<text text-anchor="middle" x="129" y="-301.8" font-family="Times,serif" font-size="14.00">bundle_combine</text>
</g>
<!-- .&#45;&gt;bundle_combine -->
<g id="edge4" class="edge"><title>.-&gt;bundle_combine</title>
<path fill="none" stroke="black" d="M276.425,-367.705C250.531,-357.042 207.41,-339.287 174.475,-325.725"></path>
<polygon fill="black" stroke="black" points="175.625,-322.413 165.045,-321.842 172.959,-328.886 175.625,-322.413"></polygon>
</g>
<!-- download_tracker -->
<g id="node30" class="node"><title>download_tracker</title>
<ellipse fill="none" stroke="black" cx="475" cy="-306" rx="80.1284" ry="18"></ellipse>
<text text-anchor="middle" x="475" y="-301.8" font-family="Times,serif" font-size="14.00">download_tracker</text>
</g>
<!-- .&#45;&gt;download_tracker -->
<g id="edge32" class="edge"><title>.-&gt;download_tracker</title>
<path fill="none" stroke="black" d="M321.649,-367.992C348.38,-357.36 393.544,-339.397 427.955,-325.711"></path>
<polygon fill="black" stroke="black" points="429.352,-328.922 437.351,-321.974 426.765,-322.418 429.352,-328.922"></polygon>
</g>
<!-- index_app_names -->
<g id="node7" class="node"><title>index_app_names</title>
<ellipse fill="none" stroke="black" cx="299" cy="-234" rx="80.1456" ry="18"></ellipse>
<text text-anchor="middle" x="299" y="-229.8" font-family="Times,serif" font-size="14.00">index_app_names</text>
</g>
<!-- download_itunes&#45;&gt;index_app_names -->
<g id="edge6" class="edge"><title>download_itunes-&gt;index_app_names</title>
<path fill="none" stroke="black" d="M299,-287.697C299,-279.983 299,-270.712 299,-262.112"></path>
<polygon fill="black" stroke="black" points="302.5,-262.104 299,-252.104 295.5,-262.104 302.5,-262.104"></polygon>
</g>
<!-- index_rank -->
<g id="node11" class="node"><title>index_rank</title>
<ellipse fill="none" stroke="black" cx="257" cy="-162" rx="54.219" ry="18"></ellipse>
<text text-anchor="middle" x="257" y="-157.8" font-family="Times,serif" font-size="14.00">index_rank</text>
</g>
<!-- bundle_combine&#45;&gt;index_rank -->
<g id="edge18" class="edge"><title>bundle_combine-&gt;index_rank</title>
<path fill="none" stroke="black" d="M144.021,-288.252C160.084,-270.35 186.314,-241.143 209,-216 217.49,-206.59 226.843,-196.256 235.019,-187.232"></path>
<polygon fill="black" stroke="black" points="237.729,-189.455 241.851,-179.695 232.542,-184.754 237.729,-189.455"></polygon>
</g>
<!-- index_domains -->
<g id="node20" class="node"><title>index_domains</title>
<ellipse fill="none" stroke="black" cx="92" cy="-234" rx="70.0665" ry="18"></ellipse>
<text text-anchor="middle" x="92" y="-229.8" font-family="Times,serif" font-size="14.00">index_domains</text>
</g>
<!-- bundle_combine&#45;&gt;index_domains -->
<g id="edge20" class="edge"><title>bundle_combine-&gt;index_domains</title>
<path fill="none" stroke="black" d="M120.043,-288.055C115.789,-280.007 110.608,-270.205 105.862,-261.226"></path>
<polygon fill="black" stroke="black" points="108.899,-259.481 101.131,-252.275 102.71,-262.752 108.899,-259.481"></polygon>
</g>
<!-- index_categories -->
<g id="node9" class="node"><title>index_categories</title>
<ellipse fill="none" stroke="black" cx="407" cy="-162" rx="76.1936" ry="18"></ellipse>
<text text-anchor="middle" x="407" y="-157.8" font-family="Times,serif" font-size="14.00">index_categories</text>
</g>
<!-- index_app_names&#45;&gt;index_categories -->
<g id="edge8" class="edge"><title>index_app_names-&gt;index_categories</title>
<path fill="none" stroke="black" d="M324.049,-216.765C338.77,-207.223 357.567,-195.04 373.545,-184.684"></path>
<polygon fill="black" stroke="black" points="375.599,-187.523 382.087,-179.147 371.792,-181.649 375.599,-187.523"></polygon>
</g>
<!-- index_app_names&#45;&gt;index_rank -->
<g id="edge10" class="edge"><title>index_app_names-&gt;index_rank</title>
<path fill="none" stroke="black" d="M288.833,-216.055C283.88,-207.801 277.821,-197.701 272.323,-188.538"></path>
<polygon fill="black" stroke="black" points="275.22,-186.563 267.073,-179.789 269.217,-190.165 275.22,-186.563"></polygon>
</g>
<!-- html_index_domains -->
<g id="node13" class="node"><title>html_index_domains</title>
<ellipse fill="none" stroke="black" cx="92" cy="-162" rx="92.3709" ry="18"></ellipse>
<text text-anchor="middle" x="92" y="-157.8" font-family="Times,serif" font-size="14.00">html_index_domains</text>
</g>
<!-- index_app_names&#45;&gt;html_index_domains -->
<g id="edge12" class="edge"><title>index_app_names-&gt;html_index_domains</title>
<path fill="none" stroke="black" d="M256.611,-218.666C224.5,-207.807 180.162,-192.813 145.592,-181.123"></path>
<polygon fill="black" stroke="black" points="146.712,-177.807 136.118,-177.919 144.47,-184.438 146.712,-177.807"></polygon>
</g>
<!-- html_categories -->
<g id="node15" class="node"><title>html_categories</title>
<ellipse fill="none" stroke="black" cx="407" cy="-90" rx="72.5712" ry="18"></ellipse>
<text text-anchor="middle" x="407" y="-85.8" font-family="Times,serif" font-size="14.00">html_categories</text>
</g>
<!-- index_categories&#45;&gt;html_categories -->
<g id="edge14" class="edge"><title>index_categories-&gt;html_categories</title>
<path fill="none" stroke="black" d="M407,-143.697C407,-135.983 407,-126.712 407,-118.112"></path>
<polygon fill="black" stroke="black" points="410.5,-118.104 407,-108.104 403.5,-118.104 410.5,-118.104"></polygon>
</g>
<!-- html_index_apps -->
<g id="node17" class="node"><title>html_index_apps</title>
<ellipse fill="none" stroke="black" cx="575" cy="-90" rx="77.3345" ry="18"></ellipse>
<text text-anchor="middle" x="575" y="-85.8" font-family="Times,serif" font-size="14.00">html_index_apps</text>
</g>
<!-- index_categories&#45;&gt;html_index_apps -->
<g id="edge16" class="edge"><title>index_categories-&gt;html_index_apps</title>
<path fill="none" stroke="black" d="M443.04,-145.983C468.396,-135.418 502.52,-121.2 529.715,-109.869"></path>
<polygon fill="black" stroke="black" points="531.135,-113.069 539.019,-105.992 528.442,-106.607 531.135,-113.069"></polygon>
</g>
<!-- html_bundle -->
<g id="node22" class="node"><title>html_bundle</title>
<ellipse fill="none" stroke="black" cx="256" cy="-90" rx="59.2871" ry="18"></ellipse>
<text text-anchor="middle" x="256" y="-85.8" font-family="Times,serif" font-size="14.00">html_bundle</text>
</g>
<!-- index_rank&#45;&gt;html_bundle -->
<g id="edge22" class="edge"><title>index_rank-&gt;html_bundle</title>
<path fill="none" stroke="black" d="M256.753,-143.697C256.643,-135.983 256.51,-126.712 256.387,-118.112"></path>
<polygon fill="black" stroke="black" points="259.887,-118.053 256.244,-108.104 252.888,-118.153 259.887,-118.053"></polygon>
</g>
<!-- html_root -->
<g id="node28" class="node"><title>html_root</title>
<ellipse fill="none" stroke="black" cx="92" cy="-90" rx="49.1927" ry="18"></ellipse>
<text text-anchor="middle" x="92" y="-85.8" font-family="Times,serif" font-size="14.00">html_root</text>
</g>
<!-- html_index_domains&#45;&gt;html_root -->
<g id="edge30" class="edge"><title>html_index_domains-&gt;html_root</title>
<path fill="none" stroke="black" d="M92,-143.697C92,-135.983 92,-126.712 92,-118.112"></path>
<polygon fill="black" stroke="black" points="95.5001,-118.104 92,-108.104 88.5001,-118.104 95.5001,-118.104"></polygon>
</g>
<!-- html_ranking -->
<g id="node25" class="node"><title>html_ranking</title>
<ellipse fill="none" stroke="black" cx="491" cy="-18" rx="63.108" ry="18"></ellipse>
<text text-anchor="middle" x="491" y="-13.8" font-family="Times,serif" font-size="14.00">html_ranking</text>
</g>
<!-- html_categories&#45;&gt;html_ranking -->
<g id="edge28" class="edge"><title>html_categories-&gt;html_ranking</title>
<path fill="none" stroke="black" d="M426.907,-72.411C437.865,-63.2789 451.629,-51.8093 463.59,-41.8418"></path>
<polygon fill="black" stroke="black" points="466.084,-44.3191 471.526,-35.2285 461.603,-38.9416 466.084,-44.3191"></polygon>
</g>
<!-- html_index_apps&#45;&gt;html_ranking -->
<g id="edge26" class="edge"><title>html_index_apps-&gt;html_ranking</title>
<path fill="none" stroke="black" d="M555.093,-72.411C544.135,-63.2789 530.371,-51.8093 518.41,-41.8418"></path>
<polygon fill="black" stroke="black" points="520.397,-38.9416 510.474,-35.2285 515.916,-44.3191 520.397,-38.9416"></polygon>
</g>
<!-- index_domains&#45;&gt;html_index_domains -->
<g id="edge24" class="edge"><title>index_domains-&gt;html_index_domains</title>
<path fill="none" stroke="black" d="M92,-215.697C92,-207.983 92,-198.712 92,-190.112"></path>
<polygon fill="black" stroke="black" points="95.5001,-190.104 92,-180.104 88.5001,-190.104 95.5001,-190.104"></polygon>
</g>
</g>
</svg>